<?xml version="1.0" encoding="UTF-8" standalone="no"?>
<svg
   xmlns:dc="http://purl.org/dc/elements/1.1/"
   xmlns:cc="http://creativecommons.org/ns#"
   xmlns:rdf="http://www.w3.org/1999/02/22-rdf-syntax-ns#"
   xmlns:svg="http://www.w3.org/2000/svg"
   xmlns="http://www.w3.org/2000/svg"
   xmlns:sodipodi="http://sodipodi.sourceforge.net/DTD/sodipodi-0.dtd"
   xmlns:inkscape="http://www.inkscape.org/namespaces/inkscape"
   version="1.1"
   id="Capa_1"
   x="0px"
   y="0px"
   viewBox="0 0 415.188 415.188"
   style="enable-background:new 0 0 415.188 415.188;"
   xml:space="preserve"
   sodipodi:docname="check.svg"
   inkscape:version="1.0.1 (3bc2e813f5, 2020-09-07)"><metadata
   id="metadata39"><rdf:RDF><cc:Work
       rdf:about=""><dc:format>image/svg+xml</dc:format><dc:type
         rdf:resource="http://purl.org/dc/dcmitype/StillImage" /></cc:Work></rdf:RDF></metadata><defs
   id="defs37" /><sodipodi:namedview
   pagecolor="#ffffff"
   bordercolor="#666666"
   borderopacity="1"
   objecttolerance="10"
   gridtolerance="10"
   guidetolerance="10"
   inkscape:pageopacity="0"
   inkscape:pageshadow="2"
   inkscape:window-width="820"
   inkscape:window-height="480"
   id="namedview35"
   showgrid="false"
   inkscape:zoom="0.6676525"
   inkscape:cx="94.453432"
   inkscape:cy="170.10424"
   inkscape:window-x="70"
   inkscape:window-y="418"
   inkscape:window-maximized="0"
   inkscape:current-layer="Capa_1" />
<path
   d="m 412.86099,78.976 c 3.40401,-6.636 2.83101,-14.159 -0.15,-20.404 0.84,-7.106 -1.02,-14.321 -7.746,-19.855 -6.262,-5.151 -12.523,-10.305 -18.781,-15.457 -11.005,-9.055 -28.237,-11.913 -38.941,0 -48.619,54.103 -99.461,105.856 -152.16699,155.725 C 155.891,142.38 116.23,106.272 76.852997,70.117 63.032997,57.424 43.029,61.407 34.333999,76.528 21.669,82.814 11.403,91.009 2.9139999,104.996 c -4.0419999,6.664 -3.72699988,15.076 0,21.764 25.4209991,45.578 74.5569971,85.651 114.9570001,122.529 -5.406,4.839 -10.772,9.724 -16.287,14.461 -54.430002,46.742 -91.144,76.399 -23.029003,124.325 0.919003,0.647 1.856,0.504 2.789,0.882 1.305,0.602 2.557001,1.026 4.004,1.264 0.450002,0.017 0.870002,0.093 1.313,0.058 1.402001,0.114 2.774,0.471 4.194999,0.192 36.621004,-7.18 70.677004,-35.878 101.575994,-67.48 30.1,29.669 62.15101,58.013 97.395,74.831 8.391,4.005 18.395,1.671 24.855,-3.931 10.832,0.818 20.708,-5.913 25.665,-15.586 0.734,-0.454 1.207,-0.713 2.002,-1.21 15.748,-9.838 17.187,-29.431 5.534,-42.936 -26.313,-30.492 -54.284,-59.478 -82.79799,-87.95 51.34099,-50.166 115.44799,-104.27 147.77599,-167.233 z"
   id="path2"
   style="fill:#907b73;stroke-width:1;fill-opacity:1" />
<g
   id="g4">
</g>
<g
   id="g6">
</g>
<g
   id="g8">
</g>
<g
   id="g10">
</g>
<g
   id="g12">
</g>
<g
   id="g14">
</g>
<g
   id="g16">
</g>
<g
   id="g18">
</g>
<g
   id="g20">
</g>
<g
   id="g22">
</g>
<g
   id="g24">
</g>
<g
   id="g26">
</g>
<g
   id="g28">
</g>
<g
   id="g30">
</g>
<g
   id="g32">
</g>
</svg>
